<svg xmlns="http://www.w3.org/2000/svg" width="1041" height="1041" viewBox="0 0 1041 1041" version="1.1"><path d="M 586.046 464.946 C 565.996 481.325, 549.467 495.124, 549.315 495.613 C 549.162 496.101, 552.295 500.547, 556.276 505.493 C 568.583 520.785, 586.768 533.619, 605.650 540.340 C 613.867 543.265, 627.289 546, 633.424 546 L 637.627 546 630.859 492.250 C 627.136 462.688, 624.070 437.712, 624.045 436.750 C 624.020 435.788, 623.663 435.038, 623.250 435.084 C 622.837 435.130, 606.096 448.568, 586.046 464.946 M 122.500 524.725 C 114.997 526.530, 100.451 531.754, 94.964 534.615 C 86.310 539.127, 81.399 543.298, 78.845 548.305 C 77.021 551.880, 76.834 553.453, 77.410 560.365 C 80.479 597.168, 108.098 673.064, 139.543 731.105 C 161.008 770.726, 183.060 803.641, 206.804 831.500 C 218.781 845.553, 248.181 874.565, 262.954 886.909 C 312.934 928.671, 367.986 959.325, 428 978.811 C 460.932 989.504, 488.005 995.418, 523.500 999.676 C 544.421 1002.185, 609.857 1002.194, 633.847 999.690 C 722.233 990.467, 811.851 966.154, 877 933.726 C 885.920 929.287, 887.838 927.898, 889.744 924.500 C 898.301 909.245, 904.520 878.774, 900.617 871.225 C 899.707 869.467, 897.950 867.775, 896.711 867.464 C 895.279 867.104, 889.360 868.881, 880.479 872.336 C 839.371 888.328, 786.062 902.207, 738 909.429 C 722.312 911.786, 697.710 914.624, 688.012 915.195 L 683.525 915.459 679.489 882.980 L 675.454 850.500 671.477 850.559 C 669.290 850.592, 658.725 851.202, 648 851.915 C 620.698 853.730, 592.294 852.394, 562.147 847.875 C 554.803 846.774, 548.674 846.014, 548.528 846.187 C 548.382 846.359, 549.994 860.450, 552.110 877.500 C 554.226 894.550, 555.967 909.225, 555.979 910.112 C 555.998 911.575, 555.197 911.597, 547.250 910.355 C 485.665 900.725, 425.161 880.087, 376 851.944 C 360.410 843.019, 338.830 828.968, 339.213 827.992 C 339.371 827.589, 344.675 823.061, 351 817.930 C 357.325 812.799, 369.593 802.816, 378.262 795.746 L 394.024 782.891 382.854 774.896 C 365.599 762.544, 351.943 750.966, 334.647 734.027 C 322.127 721.764, 308.468 707.036, 301.018 697.763 C 300.692 697.357, 288.292 706.907, 273.463 718.985 C 258.633 731.062, 246.271 740.956, 245.992 740.972 C 245.166 741.018, 232.375 724.663, 222.399 710.808 C 191.248 667.542, 166.532 621.280, 141.025 558.500 C 126.819 523.535, 126.893 523.669, 122.500 524.725 M 472.295 557.288 C 460.632 566.755, 451.069 574.899, 451.045 575.386 C 450.960 577.058, 466.226 595.201, 475.636 604.610 C 513.090 642.064, 561.670 665.633, 614.563 672.010 C 625.047 673.274, 651.482 673.829, 652.517 672.807 C 652.903 672.426, 651.274 656.296, 648.896 636.962 L 644.573 601.809 634.036 602.491 C 586.239 605.583, 534.784 584.376, 502.007 548.076 C 497.996 543.634, 494.442 540.017, 494.108 540.038 C 493.773 540.060, 483.958 547.822, 472.295 557.288 M 376 635.610 C 364.175 645.209, 354.380 653.610, 354.234 654.281 C 353.773 656.398, 375.149 680.919, 390.622 696.022 C 398.805 704.010, 410.450 714.498, 416.500 719.330 C 428.635 729.022, 444.249 740, 445.897 740 C 446.683 740, 492.603 703.426, 497.250 699.099 C 497.662 698.715, 493.411 695.948, 487.804 692.950 C 475.177 686.200, 457.528 674.663, 445 664.971 C 435.717 657.789, 409.168 632.127, 401.402 622.829 L 397.500 618.158 376 635.610 M 531.985 713.920 C 531.932 719.389, 540.569 783.634, 541.435 784.217 C 542.707 785.073, 564.237 790.250, 575.500 792.408 C 598.904 796.891, 632.493 799.433, 654.284 798.371 C 661.865 798.001, 668.239 797.422, 668.448 797.084 C 668.657 796.746, 666.846 780.727, 664.424 761.485 C 662.002 742.243, 660.015 726.443, 660.010 726.373 C 660.004 726.303, 648.188 726.470, 633.750 726.745 C 597.749 727.430, 574.642 724.597, 543.720 715.709 C 533.783 712.852, 531.998 712.580, 531.985 713.920" stroke="none" fill="#fcbc04" fill-rule="evenodd"/><path d="M 594 20.032 C 521.694 26.192, 456.782 48.234, 397.645 86.707 C 354.817 114.570, 315.007 152.782, 285.369 194.477 C 209.553 301.133, 188.197 438.718, 228.166 563 C 249.487 629.300, 283.608 684.120, 334.621 734.038 C 367.758 766.464, 399.630 789.243, 440 809.354 C 486.985 832.759, 531.587 845.384, 587.500 851.105 C 605.058 852.901, 647.055 852.666, 667.737 850.656 C 743.229 843.317, 815.730 814.796, 877.416 768.171 C 893.230 756.218, 921.030 731.496, 920.975 729.435 C 920.961 728.921, 914.324 721.601, 906.225 713.168 L 891.500 697.836 883.500 705.067 C 820.136 762.346, 743.443 793.362, 652.500 798.487 C 632.703 799.602, 597.631 796.692, 573 791.890 C 534.741 784.432, 490.600 767.388, 457.677 747.362 C 452.630 744.292, 446.925 740.877, 445 739.772 C 416.837 723.608, 372.663 681.587, 350.629 650 C 313.121 596.231, 292.622 543.752, 284.419 480.500 C 281.045 454.483, 281.544 415.170, 285.605 387 C 302.784 267.835, 377.814 165.615, 486.375 113.471 C 610.457 53.873, 758.410 70.574, 866.122 156.337 C 871.965 160.989, 879.895 167.766, 883.744 171.397 C 887.594 175.029, 891.369 178, 892.133 178 C 892.898 178, 900.718 170.795, 909.511 161.989 L 925.499 145.977 916.500 137.436 C 903.290 124.899, 888.760 112.404, 877.461 103.864 C 816.808 58.018, 747.947 30.534, 671 21.461 C 655.063 19.581, 609.266 18.732, 594 20.032 M 600.500 144.642 C 556.750 149.629, 527.853 157.940, 493 175.560 C 466.333 189.042, 444.029 205.105, 421.627 226.964 C 386.679 261.064, 362.511 299.819, 347.706 345.500 C 328.281 405.438, 328.571 468.534, 348.548 528.632 C 368.790 589.526, 410.339 643.149, 465.500 679.571 C 480.099 689.210, 501.872 700.840, 515.719 706.395 C 537.464 715.119, 567.307 722.534, 592.558 725.488 C 607.331 727.216, 637.938 727.463, 655 725.991 C 695.355 722.511, 743.884 706.320, 776.750 685.371 L 782 682.025 782 586.512 L 782 491 758.500 491 C 735.197 491, 735 491.018, 735 493.128 C 735 496.149, 726.265 507.545, 717.749 515.632 C 696.670 535.651, 670.162 545.985, 639.860 545.996 C 621.935 546.003, 606.913 542.193, 590 533.352 C 543.283 508.929, 520.667 451.296, 537.909 400.603 C 561.716 330.608, 647.070 303.601, 706.816 347.158 C 710.476 349.827, 713.772 351.895, 714.140 351.755 C 714.508 351.615, 721.909 344.553, 730.586 336.062 L 746.362 320.625 739.431 314.182 C 709.621 286.472, 672.663 271.022, 632.064 269.298 C 561.391 266.297, 496.207 308.674, 470.111 374.586 C 462.108 394.799, 458.649 413.334, 458.649 436 C 458.649 452.725, 459.756 461.921, 463.636 477.414 C 475.165 523.462, 507.208 563.024, 550.618 584.808 C 608.509 613.859, 679.782 606.761, 728.760 567.066 L 735.020 561.992 734.760 608.246 L 734.500 654.500 722.699 658.766 C 680.920 673.871, 637.375 677.341, 595.500 668.902 C 549.946 659.720, 508.535 637.509, 475.636 604.610 C 467.593 596.568, 451 577.186, 451 575.834 C 451 575.594, 448.046 570.920, 444.435 565.448 C 436.788 553.860, 426.730 533.751, 421.453 519.500 C 416.807 506.955, 411.639 486.659, 409.323 471.860 C 406.830 455.929, 406.838 420.022, 409.339 404.036 C 417.265 353.362, 439.786 308.384, 474.995 272.908 C 511.447 236.180, 556.822 213.230, 608.500 205.383 C 625.184 202.849, 658.816 202.849, 675.500 205.383 C 709.841 210.597, 741.993 222.730, 769.778 240.960 C 779.860 247.575, 786.039 252.242, 799.861 263.684 L 802.500 265.868 819.387 249.683 L 836.273 233.498 826.853 224.499 C 780.483 180.204, 722.015 152.928, 657.506 145.497 C 645.885 144.158, 609.527 143.613, 600.500 144.642" stroke="none" fill="#fcfbfb" fill-rule="evenodd"/></svg>